<svg width="230" height="112" viewBox="0 0 230 112" fill="none" xmlns="http://www.w3.org/2000/svg">
<rect width="96" height="96" rx="48" fill="#089FEC"/>
<path d="M65.177 68.0409C70.8457 68.0409 75.4411 63.4455 75.4411 57.7768C75.4411 52.1081 70.8457 47.5127 65.177 47.5127C59.5082 47.5127 54.9128 52.1081 54.9128 57.7768C54.9128 63.4455 59.5082 68.0409 65.177 68.0409Z" fill="#EB6619"/>
<path d="M32.673 68.0409C38.3418 68.0409 42.9372 63.4455 42.9372 57.7768C42.9372 52.1081 38.3418 47.5127 32.673 47.5127C27.0043 47.5127 22.4089 52.1081 22.4089 57.7768C22.4089 63.4455 27.0043 68.0409 32.673 68.0409Z" fill="#EB6619"/>
<path d="M39.2686 54.6441C42.9112 54.6441 45.8641 49.9607 45.8641 44.1834C45.8641 38.4061 42.9112 33.7227 39.2686 33.7227C35.626 33.7227 32.6731 38.4061 32.6731 44.1834C32.6731 49.9607 35.626 54.6441 39.2686 54.6441Z" fill="white"/>
<path d="M39.2685 33.723C42.9103 33.723 45.8639 38.406 45.8639 44.1838C45.8639 49.9615 42.9103 54.6445 39.2685 54.6445C35.6266 54.6445 32.673 49.9615 32.673 44.1838C32.673 38.406 35.6266 33.723 39.2685 33.723ZM39.2685 31.6943C34.4336 31.6943 30.6443 37.1772 30.6443 44.1793C30.6443 51.1814 34.4336 56.6642 39.2685 56.6642C44.1034 56.6642 47.8926 51.1814 47.8926 44.1793C47.8926 37.1772 44.1034 31.6943 39.2685 31.6943Z" fill="#231815"/>
<path d="M56.3426 54.6441C59.9851 54.6441 62.938 49.9607 62.938 44.1834C62.938 38.4061 59.9851 33.7227 56.3426 33.7227C52.7 33.7227 49.7471 38.4061 49.7471 44.1834C49.7471 49.9607 52.7 54.6441 56.3426 54.6441Z" fill="white"/>
<path d="M56.3424 33.723C59.9843 33.723 62.9379 38.406 62.9379 44.1838C62.9379 49.9615 59.9843 54.6445 56.3424 54.6445C52.7006 54.6445 49.747 49.9615 49.747 44.1838C49.747 38.406 52.7006 33.723 56.3424 33.723ZM56.3424 31.6943C51.5075 31.6943 47.7183 37.1772 47.7183 44.1793C47.7183 51.1814 51.5075 56.6642 56.3424 56.6642C61.1773 56.6642 64.9666 51.1814 64.9666 44.1793C64.9666 37.1772 61.1773 31.6943 56.3424 31.6943Z" fill="#231815"/>
<path d="M54.4166 45.185L58.9387 47.0215C58.4115 50.2835 56.5436 52.5848 54.4166 52.5848C51.8562 52.5848 49.7471 49.2424 49.7471 45.185C49.7471 41.1276 51.8562 37.7852 54.4166 37.7852C56.3872 37.7852 58.1568 39.7647 58.8136 42.7094L54.4166 45.185Z" fill="#040000"/>
<path d="M46.4584 66.1816C46.0785 66.1816 45.6898 66.1638 45.2965 66.128C42.9461 65.9091 40.6493 65.002 38.6608 63.514C38.214 63.1788 38.1202 62.5443 38.4553 62.0974C38.7904 61.6506 39.425 61.5568 39.8718 61.8919C41.0515 62.7722 42.9819 63.8759 45.4798 64.1083C51.0207 64.6266 54.8591 60.5558 55.5741 59.7336C55.9405 59.3091 56.5795 59.2644 57.004 59.6353C57.4285 60.0017 57.4732 60.6407 57.1023 61.0652C56.3248 61.9589 52.3389 66.1816 46.4539 66.1816H46.4584Z" fill="#040000"/>
<path d="M47.0214 61.41C46.1009 61.41 45.2027 61.0748 44.5101 60.4582C43.746 59.7834 43.2946 58.8317 43.2723 57.8531C43.25 56.8476 43.6834 55.8601 44.4565 55.1452C45.2518 54.4079 46.3332 54.0459 47.4057 54.1576C47.9642 54.2157 48.3664 54.7117 48.3128 55.2658C48.2547 55.8244 47.7587 56.231 47.2046 56.1729C46.7041 56.1238 46.2081 56.2891 45.8328 56.6332C45.4842 56.9549 45.2921 57.3839 45.301 57.8084C45.3099 58.2239 45.511 58.635 45.8551 58.9389C46.2304 59.2696 46.7086 59.426 47.2001 59.3723C47.7542 59.3143 48.2547 59.7209 48.3128 60.2794C48.3708 60.838 47.9642 61.334 47.4057 61.3921C47.2805 61.4055 47.151 61.41 47.0258 61.41H47.0214Z" fill="#040000"/>
<path d="M37.3427 45.185L41.8648 47.0215C41.3375 50.2835 39.4697 52.5848 37.3427 52.5848C34.7822 52.5848 32.6731 49.2424 32.6731 45.185C32.6731 41.1276 34.7822 37.7852 37.3427 37.7852C39.3133 37.7852 41.0828 39.7647 41.7397 42.7094L37.3427 45.185Z" fill="#040000"/>
<path d="M65.0472 60.6633C55.9807 60.6633 48.6077 53.2903 48.6077 44.2237C48.6077 35.1572 55.9807 27.7842 65.0472 27.7842C74.1138 27.7842 81.4868 35.1572 81.4868 44.2237C81.4868 53.2903 74.1138 60.6633 65.0472 60.6633ZM65.0472 30.0631C57.2408 30.0631 50.8866 36.4173 50.8866 44.2237C50.8866 52.0302 57.2408 58.3844 65.0472 58.3844C72.8537 58.3844 79.2079 52.0302 79.2079 44.2237C79.2079 36.4173 72.8537 30.0631 65.0472 30.0631Z" fill="black"/>
<path d="M30.5685 60.6633C21.5019 60.6633 14.1289 53.2903 14.1289 44.2237C14.1289 35.1572 21.5019 27.7842 30.5685 27.7842C39.635 27.7842 47.008 35.1572 47.008 44.2237C47.008 53.2903 39.635 60.6633 30.5685 60.6633ZM30.5685 30.0631C22.762 30.0631 16.4078 36.4173 16.4078 44.2237C16.4078 52.0302 22.762 58.3844 30.5685 58.3844C38.3749 58.3844 44.7291 52.0302 44.7291 44.2237C44.7291 36.4173 38.3749 30.0631 30.5685 30.0631Z" fill="black"/>
<path d="M49.1707 43.791H46.436V44.6624H49.1707V43.791Z" fill="black"/>
<path d="M37.7919 104.194C38.1769 104.194 38.5315 104.281 38.8559 104.455C39.1828 104.626 39.4491 104.916 39.6548 105.325C39.8631 105.731 39.9672 106.266 39.9672 106.931C39.9672 107.593 39.8763 108.16 39.6943 108.632C39.5124 109.104 39.2527 109.463 38.9152 109.711C38.5803 109.956 38.1848 110.079 37.7287 110.079C37.3833 110.079 37.0721 110.013 36.7953 109.881C36.521 109.747 36.2969 109.56 36.1229 109.32C35.9515 109.08 35.8434 108.806 35.7986 108.497H36.6608C36.7214 108.745 36.844 108.944 37.0286 109.094C37.2132 109.242 37.4465 109.317 37.7287 109.32C38.0213 109.32 38.2718 109.238 38.4801 109.075C38.6911 108.908 38.8519 108.67 38.9626 108.359C39.076 108.048 39.134 107.674 39.1367 107.239H39.0655C38.9099 107.482 38.7029 107.672 38.4445 107.809C38.1888 107.946 37.908 108.015 37.6021 108.015C37.262 108.015 36.9508 107.934 36.6687 107.773C36.3866 107.61 36.1625 107.386 35.9963 107.101C35.8329 106.814 35.7511 106.491 35.7511 106.132C35.7511 105.771 35.8355 105.442 36.0042 105.147C36.173 104.852 36.4116 104.62 36.7201 104.451C37.0312 104.28 37.3885 104.194 37.7919 104.194ZM36.5975 106.108C36.5975 106.327 36.6489 106.529 36.7518 106.713C36.8546 106.895 36.9957 107.039 37.175 107.144C37.3569 107.25 37.5625 107.303 37.7919 107.303C38.0161 107.303 38.2217 107.249 38.4089 107.14C38.5988 107.03 38.7478 106.882 38.8559 106.698C38.964 106.513 39.018 106.317 39.018 106.108C39.018 105.903 38.9653 105.709 38.8598 105.527C38.7543 105.342 38.6093 105.196 38.4248 105.088C38.2402 104.977 38.0345 104.922 37.8078 104.922C37.5836 104.922 37.3793 104.976 37.1947 105.084C37.0102 105.189 36.8638 105.333 36.7557 105.515C36.6502 105.694 36.5975 105.892 36.5975 106.108ZM42.9731 110.079C42.5855 110.079 42.2282 109.993 41.9013 109.822C41.5743 109.648 41.3067 109.357 41.0984 108.948C40.8927 108.537 40.7899 107.996 40.7899 107.326C40.7899 106.67 40.8809 106.107 41.0628 105.638C41.2447 105.166 41.5031 104.807 41.838 104.562C42.1755 104.317 42.5723 104.194 43.0285 104.194C43.3739 104.194 43.6837 104.261 43.9579 104.396C44.2321 104.527 44.4549 104.712 44.6263 104.949C44.7977 105.187 44.9058 105.457 44.9506 105.76H44.0884C44.0278 105.518 43.9052 105.324 43.7206 105.179C43.5387 105.031 43.308 104.956 43.0285 104.953C42.7358 104.953 42.484 105.036 42.273 105.202C42.0647 105.366 41.9052 105.602 41.7945 105.91C41.6837 106.219 41.6284 106.588 41.6284 107.018H41.6917C41.8472 106.775 42.0529 106.587 42.3086 106.452C42.567 106.315 42.8518 106.245 43.1629 106.243C43.5004 106.243 43.8103 106.324 44.0924 106.488C44.3745 106.649 44.5973 106.873 44.7608 107.16C44.9243 107.445 45.006 107.767 45.006 108.125C45.006 108.492 44.9203 108.824 44.7489 109.122C44.5802 109.42 44.3416 109.655 44.0331 109.826C43.7246 109.995 43.3712 110.079 42.9731 110.079ZM41.7312 108.149C41.7312 108.36 41.7839 108.558 41.8894 108.742C41.9975 108.927 42.1438 109.075 42.3284 109.185C42.513 109.296 42.72 109.351 42.9494 109.351C43.1761 109.351 43.3818 109.297 43.5664 109.189C43.7509 109.078 43.8959 108.932 44.0014 108.75C44.1069 108.566 44.1596 108.363 44.1596 108.141C44.1596 107.925 44.1082 107.726 44.0054 107.544C43.9025 107.362 43.7602 107.218 43.5782 107.113C43.3989 107.007 43.1972 106.955 42.9731 106.955C42.7463 106.955 42.538 107.01 42.3482 107.121C42.1583 107.229 42.0081 107.375 41.8973 107.56C41.7892 107.742 41.7338 107.938 41.7312 108.149ZM46.1292 108.521L47.474 107.168L46.1292 105.831L46.6592 105.301L48.004 106.638L49.3487 105.301L49.8787 105.831L48.5339 107.168L49.8787 108.521L49.3487 109.051L48.004 107.706L46.6592 109.051L46.1292 108.521ZM53.0348 104.194C53.4198 104.194 53.7744 104.281 54.0987 104.455C54.4257 104.626 54.692 104.916 54.8977 105.325C55.106 105.731 55.2101 106.266 55.2101 106.931C55.2101 107.593 55.1191 108.16 54.9372 108.632C54.7553 109.104 54.4956 109.463 54.1581 109.711C53.8232 109.956 53.4277 110.079 52.9715 110.079C52.6261 110.079 52.315 110.013 52.0381 109.881C51.7639 109.747 51.5398 109.56 51.3658 109.32C51.1944 109.08 51.0863 108.806 51.0415 108.497H51.9037C51.9643 108.745 52.0869 108.944 52.2715 109.094C52.4561 109.242 52.6894 109.317 52.9715 109.32C53.2642 109.32 53.5147 109.238 53.723 109.075C53.9339 108.908 54.0948 108.67 54.2055 108.359C54.3189 108.048 54.3769 107.674 54.3795 107.239H54.3084C54.1528 107.482 53.9458 107.672 53.6874 107.809C53.4316 107.946 53.1508 108.015 52.845 108.015C52.5048 108.015 52.1937 107.934 51.9116 107.773C51.6294 107.61 51.4053 107.386 51.2392 107.101C51.0757 106.814 50.994 106.491 50.994 106.132C50.994 105.771 51.0784 105.442 51.2471 105.147C51.4159 104.852 51.6545 104.62 51.963 104.451C52.2741 104.28 52.6314 104.194 53.0348 104.194ZM51.8404 106.108C51.8404 106.327 51.8918 106.529 51.9946 106.713C52.0975 106.895 52.2385 107.039 52.4178 107.144C52.5998 107.25 52.8054 107.303 53.0348 107.303C53.2589 107.303 53.4646 107.249 53.6518 107.14C53.8417 107.03 53.9906 106.882 54.0987 106.698C54.2068 106.513 54.2609 106.317 54.2609 106.108C54.2609 105.903 54.2082 105.709 54.1027 105.527C53.9972 105.342 53.8522 105.196 53.6676 105.088C53.4831 104.977 53.2774 104.922 53.0506 104.922C52.8265 104.922 52.6222 104.976 52.4376 105.084C52.253 105.189 52.1067 105.333 51.9986 105.515C51.8931 105.694 51.8404 105.892 51.8404 106.108ZM58.216 110.079C57.8284 110.079 57.4711 109.993 57.1441 109.822C56.8172 109.648 56.5496 109.357 56.3413 108.948C56.1356 108.537 56.0328 107.996 56.0328 107.326C56.0328 106.67 56.1237 106.107 56.3057 105.638C56.4876 105.166 56.746 104.807 57.0809 104.562C57.4184 104.317 57.8152 104.194 58.2713 104.194C58.6167 104.194 58.9266 104.261 59.2008 104.396C59.475 104.527 59.6978 104.712 59.8692 104.949C60.0406 105.187 60.1487 105.457 60.1935 105.76H59.3313C59.2707 105.518 59.148 105.324 58.9635 105.179C58.7815 105.031 58.5508 104.956 58.2713 104.953C57.9787 104.953 57.7269 105.036 57.5159 105.202C57.3076 105.366 57.1481 105.602 57.0374 105.91C56.9266 106.219 56.8712 106.588 56.8712 107.018H56.9345C57.0901 106.775 57.2958 106.587 57.5515 106.452C57.8099 106.315 58.0947 106.245 58.4058 106.243C58.7433 106.243 59.0531 106.324 59.3353 106.488C59.6174 106.649 59.8402 106.873 60.0037 107.16C60.1671 107.445 60.2489 107.767 60.2489 108.125C60.2489 108.492 60.1632 108.824 59.9918 109.122C59.823 109.42 59.5844 109.655 59.2759 109.826C58.9674 109.995 58.6141 110.079 58.216 110.079ZM56.9741 108.149C56.9741 108.36 57.0268 108.558 57.1323 108.742C57.2404 108.927 57.3867 109.075 57.5713 109.185C57.7559 109.296 57.9628 109.351 58.1922 109.351C58.419 109.351 58.6247 109.297 58.8092 109.189C58.9938 109.078 59.1388 108.932 59.2443 108.75C59.3498 108.566 59.4025 108.363 59.4025 108.141C59.4025 107.925 59.3511 107.726 59.2482 107.544C59.1454 107.362 59.003 107.218 58.8211 107.113C58.6418 107.007 58.4401 106.955 58.216 106.955C57.9892 106.955 57.7809 107.01 57.5911 107.121C57.4012 107.229 57.2509 107.375 57.1402 107.56C57.0321 107.742 56.9767 107.938 56.9741 108.149Z" fill="black"/>
<path d="M128.593 110.079C128.202 110.079 127.852 110.013 127.54 109.881C127.232 109.75 126.988 109.565 126.809 109.328C126.632 109.088 126.539 108.813 126.528 108.505H127.414C127.424 108.668 127.481 108.813 127.584 108.94C127.689 109.064 127.829 109.16 128.003 109.229C128.177 109.295 128.371 109.328 128.585 109.328C128.814 109.328 129.018 109.289 129.198 109.213C129.38 109.134 129.522 109.023 129.625 108.881C129.728 108.738 129.779 108.576 129.779 108.394C129.779 108.204 129.728 108.037 129.625 107.892C129.525 107.744 129.377 107.63 129.182 107.548C128.987 107.463 128.756 107.421 128.49 107.421H127.999V106.709H128.49C128.706 106.709 128.897 106.672 129.063 106.599C129.232 106.522 129.362 106.415 129.455 106.278C129.55 106.141 129.597 105.982 129.597 105.8C129.597 105.626 129.556 105.473 129.475 105.341C129.393 105.209 129.277 105.106 129.126 105.032C128.976 104.959 128.801 104.922 128.6 104.922C128.408 104.922 128.227 104.956 128.059 105.025C127.892 105.093 127.758 105.192 127.655 105.321C127.552 105.448 127.498 105.594 127.493 105.76H126.655C126.662 105.457 126.753 105.187 126.927 104.949C127.104 104.709 127.34 104.524 127.635 104.392C127.931 104.26 128.255 104.194 128.608 104.194C128.975 104.194 129.297 104.264 129.573 104.404C129.85 104.543 130.064 104.733 130.214 104.973C130.364 105.21 130.438 105.47 130.436 105.752C130.438 106.074 130.349 106.347 130.167 106.571C129.985 106.795 129.737 106.947 129.423 107.026V107.065C129.681 107.102 129.903 107.183 130.088 107.307C130.275 107.428 130.416 107.585 130.511 107.777C130.608 107.97 130.657 108.186 130.657 108.426C130.657 108.74 130.567 109.023 130.388 109.276C130.211 109.527 129.965 109.723 129.649 109.866C129.335 110.008 128.983 110.079 128.593 110.079ZM131.614 109.367L133.6 107.366C133.84 107.118 134.023 106.918 134.149 106.765C134.276 106.609 134.372 106.459 134.438 106.314C134.507 106.166 134.541 106.011 134.541 105.847C134.541 105.663 134.495 105.5 134.403 105.361C134.31 105.221 134.184 105.113 134.023 105.036C133.862 104.96 133.681 104.922 133.481 104.922C133.27 104.922 133.085 104.964 132.927 105.048C132.772 105.133 132.65 105.251 132.563 105.404C132.479 105.554 132.437 105.731 132.437 105.934H131.614C131.612 105.591 131.691 105.288 131.852 105.025C132.012 104.761 132.236 104.556 132.524 104.411C132.811 104.266 133.136 104.194 133.497 104.194C133.858 104.194 134.18 104.265 134.462 104.408C134.747 104.547 134.968 104.741 135.126 104.989C135.287 105.237 135.369 105.515 135.372 105.823C135.369 106.042 135.327 106.253 135.245 106.456C135.163 106.657 135.023 106.881 134.826 107.129C134.628 107.374 134.348 107.674 133.987 108.03L132.824 109.209V109.256H135.466V110H131.614V109.367ZM136.629 108.521L137.974 107.168L136.629 105.831L137.159 105.301L138.504 106.638L139.849 105.301L140.379 105.831L139.034 107.168L140.379 108.521L139.849 109.051L138.504 107.706L137.159 109.051L136.629 108.521ZM143.614 110.079C143.224 110.079 142.873 110.013 142.562 109.881C142.253 109.75 142.009 109.565 141.83 109.328C141.654 109.088 141.56 108.813 141.549 108.505H142.435C142.446 108.668 142.503 108.813 142.605 108.94C142.711 109.064 142.851 109.16 143.025 109.229C143.199 109.295 143.392 109.328 143.606 109.328C143.835 109.328 144.04 109.289 144.219 109.213C144.401 109.134 144.543 109.023 144.646 108.881C144.749 108.738 144.8 108.576 144.8 108.394C144.8 108.204 144.749 108.037 144.646 107.892C144.546 107.744 144.398 107.63 144.203 107.548C144.008 107.463 143.777 107.421 143.511 107.421H143.021V106.709H143.511C143.727 106.709 143.918 106.672 144.085 106.599C144.253 106.522 144.384 106.415 144.476 106.278C144.571 106.141 144.619 105.982 144.619 105.8C144.619 105.626 144.578 105.473 144.496 105.341C144.414 105.209 144.298 105.106 144.148 105.032C143.998 104.959 143.822 104.922 143.622 104.922C143.429 104.922 143.249 104.956 143.08 105.025C142.914 105.093 142.779 105.192 142.677 105.321C142.574 105.448 142.52 105.594 142.514 105.76H141.676C141.684 105.457 141.775 105.187 141.949 104.949C142.125 104.709 142.361 104.524 142.657 104.392C142.952 104.26 143.276 104.194 143.63 104.194C143.996 104.194 144.318 104.264 144.595 104.404C144.872 104.543 145.085 104.733 145.235 104.973C145.386 105.21 145.46 105.47 145.457 105.752C145.46 106.074 145.37 106.347 145.188 106.571C145.006 106.795 144.758 106.947 144.444 107.026V107.065C144.703 107.102 144.924 107.183 145.109 107.307C145.296 107.428 145.437 107.585 145.532 107.777C145.63 107.97 145.678 108.186 145.678 108.426C145.678 108.74 145.589 109.023 145.41 109.276C145.233 109.527 144.986 109.723 144.67 109.866C144.356 110.008 144.004 110.079 143.614 110.079ZM146.636 109.367L148.621 107.366C148.861 107.118 149.044 106.918 149.171 106.765C149.297 106.609 149.394 106.459 149.46 106.314C149.528 106.166 149.562 106.011 149.562 105.847C149.562 105.663 149.516 105.5 149.424 105.361C149.332 105.221 149.205 105.113 149.044 105.036C148.883 104.96 148.703 104.922 148.502 104.922C148.291 104.922 148.107 104.964 147.949 105.048C147.793 105.133 147.672 105.251 147.585 105.404C147.5 105.554 147.458 105.731 147.458 105.934H146.636C146.633 105.591 146.712 105.288 146.873 105.025C147.034 104.761 147.258 104.556 147.545 104.411C147.833 104.266 148.157 104.194 148.518 104.194C148.879 104.194 149.201 104.265 149.483 104.408C149.768 104.547 149.99 104.741 150.148 104.989C150.309 105.237 150.39 105.515 150.393 105.823C150.39 106.042 150.348 106.253 150.266 106.456C150.185 106.657 150.045 106.881 149.847 107.129C149.649 107.374 149.37 107.674 149.009 108.03L147.846 109.209V109.256H150.488V110H146.636V109.367Z" fill="black"/>
<path d="M178.929 110H178.051V105.143H178.02L176.651 106.037V105.206L178.075 104.273H178.929V110ZM182.473 110.079C182.085 110.079 181.728 109.993 181.401 109.822C181.074 109.648 180.807 109.357 180.598 108.948C180.393 108.537 180.29 107.996 180.29 107.326C180.29 106.67 180.381 106.107 180.563 105.638C180.745 105.166 181.003 104.807 181.338 104.562C181.675 104.317 182.072 104.194 182.528 104.194C182.874 104.194 183.184 104.261 183.458 104.396C183.732 104.527 183.955 104.712 184.126 104.949C184.298 105.187 184.406 105.457 184.451 105.76H183.588C183.528 105.518 183.405 105.324 183.221 105.179C183.039 105.031 182.808 104.956 182.528 104.953C182.236 104.953 181.984 105.036 181.773 105.202C181.565 105.366 181.405 105.602 181.294 105.91C181.184 106.219 181.128 106.588 181.128 107.018H181.192C181.347 106.775 181.553 106.587 181.809 106.452C182.067 106.315 182.352 106.245 182.663 106.243C183 106.243 183.31 106.324 183.592 106.488C183.875 106.649 184.097 106.873 184.261 107.16C184.424 107.445 184.506 107.767 184.506 108.125C184.506 108.492 184.42 108.824 184.249 109.122C184.08 109.42 183.842 109.655 183.533 109.826C183.225 109.995 182.871 110.079 182.473 110.079ZM181.231 108.149C181.231 108.36 181.284 108.558 181.389 108.742C181.498 108.927 181.644 109.075 181.828 109.185C182.013 109.296 182.22 109.351 182.449 109.351C182.676 109.351 182.882 109.297 183.066 109.189C183.251 109.078 183.396 108.932 183.501 108.75C183.607 108.566 183.66 108.363 183.66 108.141C183.66 107.925 183.608 107.726 183.505 107.544C183.403 107.362 183.26 107.218 183.078 107.113C182.899 107.007 182.697 106.955 182.473 106.955C182.246 106.955 182.038 107.01 181.848 107.121C181.658 107.229 181.508 107.375 181.397 107.56C181.289 107.742 181.234 107.938 181.231 108.149ZM185.629 108.521L186.974 107.168L185.629 105.831L186.159 105.301L187.504 106.638L188.849 105.301L189.379 105.831L188.034 107.168L189.379 108.521L188.849 109.051L187.504 107.706L186.159 109.051L185.629 108.521ZM192.756 110H191.878V105.143H191.847L190.478 106.037V105.206L191.902 104.273H192.756V110ZM196.3 110.079C195.912 110.079 195.555 109.993 195.228 109.822C194.901 109.648 194.634 109.357 194.425 108.948C194.22 108.537 194.117 107.996 194.117 107.326C194.117 106.67 194.208 106.107 194.39 105.638C194.572 105.166 194.83 104.807 195.165 104.562C195.502 104.317 195.899 104.194 196.355 104.194C196.701 104.194 197.011 104.261 197.285 104.396C197.559 104.527 197.782 104.712 197.953 104.949C198.125 105.187 198.233 105.457 198.278 105.76H197.415C197.355 105.518 197.232 105.324 197.048 105.179C196.866 105.031 196.635 104.956 196.355 104.953C196.063 104.953 195.811 105.036 195.6 105.202C195.392 105.366 195.232 105.602 195.121 105.91C195.011 106.219 194.955 106.588 194.955 107.018H195.019C195.174 106.775 195.38 106.587 195.636 106.452C195.894 106.315 196.179 106.245 196.49 106.243C196.827 106.243 197.137 106.324 197.419 106.488C197.701 106.649 197.924 106.873 198.088 107.16C198.251 107.445 198.333 107.767 198.333 108.125C198.333 108.492 198.247 108.824 198.076 109.122C197.907 109.42 197.669 109.655 197.36 109.826C197.052 109.995 196.698 110.079 196.3 110.079ZM195.058 108.149C195.058 108.36 195.111 108.558 195.216 108.742C195.324 108.927 195.471 109.075 195.655 109.185C195.84 109.296 196.047 109.351 196.276 109.351C196.503 109.351 196.709 109.297 196.893 109.189C197.078 109.078 197.223 108.932 197.328 108.75C197.434 108.566 197.487 108.363 197.487 108.141C197.487 107.925 197.435 107.726 197.332 107.544C197.229 107.362 197.087 107.218 196.905 107.113C196.726 107.007 196.524 106.955 196.3 106.955C196.073 106.955 195.865 107.01 195.675 107.121C195.485 107.229 195.335 107.375 195.224 107.56C195.116 107.742 195.061 107.938 195.058 108.149Z" fill="black"/>
<path d="M209.929 110H209.051V105.143H209.02L207.651 106.037V105.206L209.075 104.273H209.929V110ZM213.473 110.079C213.085 110.079 212.728 109.993 212.401 109.822C212.074 109.648 211.807 109.357 211.598 108.948C211.393 108.537 211.29 107.996 211.29 107.326C211.29 106.67 211.381 106.107 211.563 105.638C211.745 105.166 212.003 104.807 212.338 104.562C212.675 104.317 213.072 104.194 213.528 104.194C213.874 104.194 214.184 104.261 214.458 104.396C214.732 104.527 214.955 104.712 215.126 104.949C215.298 105.187 215.406 105.457 215.451 105.76H214.588C214.528 105.518 214.405 105.324 214.221 105.179C214.039 105.031 213.808 104.956 213.528 104.953C213.236 104.953 212.984 105.036 212.773 105.202C212.565 105.366 212.405 105.602 212.294 105.91C212.184 106.219 212.128 106.588 212.128 107.018H212.192C212.347 106.775 212.553 106.587 212.809 106.452C213.067 106.315 213.352 106.245 213.663 106.243C214 106.243 214.31 106.324 214.592 106.488C214.875 106.649 215.097 106.873 215.261 107.16C215.424 107.445 215.506 107.767 215.506 108.125C215.506 108.492 215.42 108.824 215.249 109.122C215.08 109.42 214.842 109.655 214.533 109.826C214.225 109.995 213.871 110.079 213.473 110.079ZM212.231 108.149C212.231 108.36 212.284 108.558 212.389 108.742C212.498 108.927 212.644 109.075 212.828 109.185C213.013 109.296 213.22 109.351 213.449 109.351C213.676 109.351 213.882 109.297 214.066 109.189C214.251 109.078 214.396 108.932 214.501 108.75C214.607 108.566 214.66 108.363 214.66 108.141C214.66 107.925 214.608 107.726 214.505 107.544C214.403 107.362 214.26 107.218 214.078 107.113C213.899 107.007 213.697 106.955 213.473 106.955C213.246 106.955 213.038 107.01 212.848 107.121C212.658 107.229 212.508 107.375 212.397 107.56C212.289 107.742 212.234 107.938 212.231 108.149ZM216.629 108.521L217.974 107.168L216.629 105.831L217.159 105.301L218.504 106.638L219.849 105.301L220.379 105.831L219.034 107.168L220.379 108.521L219.849 109.051L218.504 107.706L217.159 109.051L216.629 108.521ZM223.756 110H222.878V105.143H222.847L221.478 106.037V105.206L222.902 104.273H223.756V110ZM227.3 110.079C226.912 110.079 226.555 109.993 226.228 109.822C225.901 109.648 225.634 109.357 225.425 108.948C225.22 108.537 225.117 107.996 225.117 107.326C225.117 106.67 225.208 106.107 225.39 105.638C225.572 105.166 225.83 104.807 226.165 104.562C226.502 104.317 226.899 104.194 227.355 104.194C227.701 104.194 228.011 104.261 228.285 104.396C228.559 104.527 228.782 104.712 228.953 104.949C229.125 105.187 229.233 105.457 229.278 105.76H228.415C228.355 105.518 228.232 105.324 228.048 105.179C227.866 105.031 227.635 104.956 227.355 104.953C227.063 104.953 226.811 105.036 226.6 105.202C226.392 105.366 226.232 105.602 226.121 105.91C226.011 106.219 225.955 106.588 225.955 107.018H226.019C226.174 106.775 226.38 106.587 226.636 106.452C226.894 106.315 227.179 106.245 227.49 106.243C227.827 106.243 228.137 106.324 228.419 106.488C228.701 106.649 228.924 106.873 229.088 107.16C229.251 107.445 229.333 107.767 229.333 108.125C229.333 108.492 229.247 108.824 229.076 109.122C228.907 109.42 228.669 109.655 228.36 109.826C228.052 109.995 227.698 110.079 227.3 110.079ZM226.058 108.149C226.058 108.36 226.111 108.558 226.216 108.742C226.324 108.927 226.471 109.075 226.655 109.185C226.84 109.296 227.047 109.351 227.276 109.351C227.503 109.351 227.709 109.297 227.893 109.189C228.078 109.078 228.223 108.932 228.328 108.75C228.434 108.566 228.487 108.363 228.487 108.141C228.487 107.925 228.435 107.726 228.332 107.544C228.229 107.362 228.087 107.218 227.905 107.113C227.726 107.007 227.524 106.955 227.3 106.955C227.073 106.955 226.865 107.01 226.675 107.121C226.485 107.229 226.335 107.375 226.224 107.56C226.116 107.742 226.061 107.938 226.058 108.149Z" fill="black"/>
</svg>
