<svg width="90" height="74" viewBox="0 0 90 74" fill="none" xmlns="http://www.w3.org/2000/svg">
<rect width="90" height="74" fill="#003557"/>
<path d="M25.0802 52.156V54.34H26.2282V52.156H25.0802ZM19.9282 51.54V52.492H31.3662V51.54H19.9282ZM20.9922 45.828V46.78H30.2882V45.828H20.9922ZM21.0482 49.426V50.378H30.2322V49.426H21.0482ZM22.9102 46.248V50.042H24.0722V46.248H22.9102ZM27.2222 46.248V50.042H28.3702V46.248H27.2222ZM21.3282 53.962V57.924H29.9662V53.962H21.3282ZM28.8322 54.886V56.986H22.4762V54.886H28.8322ZM42.0191 45.436V51.988H43.1811V45.436H42.0191ZM35.0051 52.604V53.528H42.0471V54.802H35.0331V57.448H36.1671V55.642H43.1951V52.604H35.0051ZM35.0331 57.028V57.952H43.6151V57.028H35.0331ZM36.1811 46.556V47.214C36.1811 48.936 34.8791 50.49 32.9891 51.106L33.5351 52.016C35.6771 51.302 37.1331 49.454 37.1331 47.214V46.556H36.1811ZM36.4191 46.556V47.214C36.4191 49.342 37.8891 51.092 40.0171 51.75L40.5631 50.854C38.6871 50.28 37.3711 48.824 37.3711 47.214V46.556H36.4191ZM33.2971 46.15V47.088H40.2271V46.15H33.2971ZM46.372 46.416V47.368H51.972V46.416H46.372ZM48.276 49.244V52.408H49.424V49.244H48.276ZM51.51 46.416V47.088C51.51 47.9 51.51 49.048 51.188 50.714L52.322 50.84C52.658 49.174 52.658 47.914 52.658 47.088V46.416H51.51ZM54.38 45.436V54.97H55.542V45.436H54.38ZM55.01 49.552V50.518H57.348V49.552H55.01ZM47.548 56.86V57.812H55.948V56.86H47.548ZM47.548 54.088V57.154H48.696V54.088H47.548ZM45.728 52.954C47.954 52.954 50.978 52.898 53.61 52.436L53.526 51.596C50.964 51.946 47.856 52.002 45.602 52.002L45.728 52.954ZM67.7909 45.422V58.106H68.9529V45.422H67.7909ZM59.3069 54.088V55.054H60.3569C62.5269 55.054 64.4309 54.97 66.7269 54.592L66.6009 53.64C64.3609 54.004 62.4709 54.088 60.3569 54.088H59.3069ZM59.2789 46.612V47.564H63.9549V50.182H59.3069V54.452H60.4689V51.134H65.1309V46.612H59.2789Z" fill="white"/>
<path d="M56.2411 28.2355C57.2624 28.0384 58 27.2502 58 26.3143C58 25.2306 57.0355 24.3931 55.844 24.3439H49.7163C49.7163 24.3439 50.7376 18.0385 47.9007 17.1025C47.3901 16.9055 46.8227 17.004 46.3688 17.2996C45.0071 18.2355 45.9716 20.6 45.1773 22.0779C43.9291 24.2946 42.6809 24.9842 42.227 25.1813C42.1135 25.2306 42 25.3291 42 25.4769V35.3783C42 35.6738 42.2837 35.9694 42.6241 36.2157C43.305 36.7083 44.0993 36.9546 45.0071 36.9546H53.1773C54.0284 36.9546 54.6525 36.3635 54.6525 35.6246C54.6525 35.2305 54.4823 34.8857 54.1986 34.6394C55.2766 34.5901 56.0709 33.8512 56.0709 32.9152C56.0709 32.4226 55.844 31.9793 55.4468 31.6345H55.5035C56.5248 31.6345 57.3759 30.8463 57.3759 29.9103C57.4326 29.1222 56.922 28.4818 56.2411 28.2355Z" fill="white"/>
<path d="M39.2041 36.9546H34.7959C34.3673 36.9546 34 36.6484 34 36.2911V24.6041C34 24.2469 34.3673 23.9407 34.7959 23.9407H39.2041C39.6327 23.9407 40 24.2469 40 24.6041V36.2911C40 36.6484 39.6327 36.9546 39.2041 36.9546Z" fill="#409AD6"/>
</svg>
